<svg xmlns="http://www.w3.org/2000/svg" version="1.0" viewBox="0 0 312 100"><path d="M59 15c-17 2-34 7-48 15-5 3-6 4-6 6 0 1 0 2 13 2 12 0 22 1 28 3 3 0 2 2-2 6a87 87 0 0 0-19 32l5-3c11-7 27-12 42-13 6 0 10-1 15-3l19-6 13-3 18 8a153 153 0 0 0 146-1l-17 23c-6 7-7 8-6 10 1 1 3 1 9-2 15-6 17-7 23-16l13-24 3-8-2-3c-3-3-4-3-7-2l-20 1c-15 1-17 1-23 4a145 145 0 0 1-16 6l30 6h10l-4 3c-20 11-50 18-73 17-22-2-36-6-65-18-14-7-18-9-19-11-3-4-23-23-29-27-5-3-7-3-14-4l-17 1zm5 8c8 2 17 7 23 12l4 2-8-1-9-1c-3-3-21-9-29-11-5 0-4-2 1-3 7-1 11-1 18 2zm0 21c-6 4-14 13-17 17-3 3-10 8-12 7-1-1 7-12 15-20 4-5 7-7 15-7h3l-4 3zm234-3-5 5-5 3h-13l-17-2-4-1 5-2c4-2 7-2 19-2h15l5-1zm-194 5 6 2-8 2-16 5c-5 3-10 4-13 4h-4l3-3 19-10c7-2 6-2 13 0z"/></svg>