<svg xmlns="http://www.w3.org/2000/svg" version="1.0" viewBox="0 0 221 200"><path d="M41 11v11l-7-1-9-1c-3 0-3 0-3 3v23l-7-2-9-1c-3-2-6 12-6 26s9 93 10 94l8 1a177 177 0 0 1 78 31c8 4 11 5 17 5l8-1c12 0 78-15 90-20 7-4 7-3 8-27 2-43 2-98 1-99-1-2-2-2-7 0l-5 1v-7c0-6 0-6-3-6-3-1-3-1-4-4-1-6-5-16-6-16l-8 3c-4 2-13 6-22 8-23 7-34 13-48 25l-6 5-3-5c-6-15-23-34-37-43C64 9 49 2 44 0h-3v11zm16-2a100 100 0 0 1 47 47l-8-6C84 40 64 30 49 25l-5-1V14l1-10 12 5zM37 25c27 7 52 21 69 38l6 7h-3l-7-2c-2-2-3-3-5-2-3 2-16-1-29-6L32 48c-5-1-6-1-6-5V28c0-5 2-5 11-3zm158 4 3 8v4l-25 6c-34 7-44 10-54 17-3 3-4 4-5 3s0-3 5-7c12-11 23-17 45-24l22-8 7-3 2 4zm9 21v6l-4 1c-8 2-24 4-36 4-15 0-28 1-34 4l-5 1c0-2 11-7 20-10l57-12c2 0 2 1 2 6zM21 49c14 3 21 5 38 11 17 7 20 8 30 9l8 2v3l-5 38c-6 51-6 54-6 65l1 9-5-3a194 194 0 0 0-66-22l-4-1c0-1-7-59-8-79-1-12 0-28 2-32 0-3 3-2 15 0zm197 24-1 47-2 41v12l-5 3c-11 5-85 22-87 19l-2-49c0-21 1-39 3-62 1-13 1-13 4-15 6-3 10-3 30-4 21-1 34-2 48-6 13-4 12-6 11 14zm-108 0h8l4-1v4c-3 15-3 33-3 74v45l-4 1c-4 1-9 0-15-3-7-4-9-6-10-14s-1-12 6-64c6-48 5-43 8-42h6z"/><path d="M51 17c0 1 3 3 7 4l13 5 6 3v-2c-2-4-19-11-24-11l-2 1zM38 41c-2 1-1 2 3 2 8 2 17 4 22 7l6 1c2-2-1-3-11-7-10-3-19-5-20-3zm129-3c-8 2-24 8-25 10v2l8-2 25-8c3-1 4-4 1-4l-9 2zM30 64v1a461 461 0 0 0 49 17l-5 39c-5 35-6 42-3 39a1455 1455 0 0 0 9-82c-4 0-18-4-32-9-16-6-17-7-18-5zm-9 14-2 24c-1 30-1 31 1 31l1-2a2071 2071 0 0 1 2-53h-2z"/><path d="m48 85-1 5-1 8-1 4-1-3-3-3c-2 0-2 0 0 5l2 5-7-2c-6-2-8-2-8 0l9 3 8 3-6 5-6 5c0 2 1 2 5-1 8-5 7-5 7 2-2 12-2 13 0 13 1 1 2-2 3-9l1-9 2 4 3 4c2 0 2-2 0-7l-3-5 6 1 6 2c3 0 2-2-3-4l-5-2c-1 0-1-1 2-3 4-4 2-6-3-2l-4 3 1-20c0-3-2-4-3-2zm-24 61-1 2c2 2 40 17 40 16 1-1-1-4-3-4l-18-8a705 705 0 0 0-18-6zm169-75-37 9-14 2v2l1 1a554 554 0 0 0 55-10c1 1 0 50-1 63-3 18-3 18-1 18s2-3 5-24a281 281 0 0 0-1-61h-7z"/><path d="m186 91-3 2-3 1c-1 1 1 3 3 2 2 0 2 0 2 2 0 3 2 3 3 0l3-3 2-1-2-2-2-1c0-3-3-2-3 0zm-45 7-5 77v6l7-1c15-1 40-7 40-10 0-1-1-1-9 1-10 3-27 6-32 6h-3v-7a2350 2350 0 0 0 2-72zm18 2-2 2c-2 0-4 2-3 3l3 1c2 0 2 0 2 3l1 4 2-4c0-3 0-4 3-4l2-1-2-2-3-2-2-2-1 2zm22 12c0 4 0 4-3 4-5 1-5 3 0 3 3 0 3 0 3 3l1 4c2 0 2-1 2-2 0-3 1-5 4-5 2-1 2-3-1-4-1 0-2-1-2-3-1-4-4-4-4 0z"/><path d="m164 131-2 2-2 2 2 2 2 2c0 2 2 2 3 0l3-3 2-2-2-1c-2 0-3-1-3-2l-1-2-2 2zm17 13s-1 2-3 2c-2 1-2 3 1 3 2 0 2 1 2 3 0 4 2 3 3-1 0-1 1-3 3-3 3-1 4-3 1-3l-3-1c0-2-3-2-4 0zm-30 1c0 1-1 2-3 2-3 1-4 3 0 4 2 0 3 1 3 2 0 2 2 1 3 0l2-2c3-1 2-3 0-4l-2-2c0-2-2-2-3 0zm13 12c0 2-2 3-3 3-2 1-2 3 1 3l1 3 2 2c1 1 2-1 2-2 0-3 1-3 4-3l3-1c0-1-1-2-3-2-3 0-4 0-4-2 0-3-2-3-3-1zm-62-48c0 2 3 3 7 3 7-1 6-3-1-3h-6zm0 6c-1 1-1 2 1 4 3 2 6 2 8 1 4-3 2-5-2-3-1 1-2 0-4-1l-3-1zm-4 22c-1 2 5 6 9 6s8-2 7-4h-5c-2 1-3 1-6-1-3-1-4-2-5-1zm-3 9 3 3c4 3 13 2 13 0 1-1 0-1-4-1l-7-1c-4-2-5-2-5-1zm0 26c0 2 5 4 8 4 5 0 10-2 10-4H95zm0 10c0 3 10 5 16 3 2-1 3-4 0-3h-11c-4-2-5-2-5 0z"/></svg>