<svg xmlns="http://www.w3.org/2000/svg" version="1.0" viewBox="0 0 146 200"><path d="M9 1 5 4a2133 2133 0 0 0-2 174l6 2 14 2a1017 1017 0 0 1 80 17c6 2 8 1 15-5l6-7 1-10 8-58 4-31 3-19a320 320 0 0 0 5-42c2-4 1-7-1-9s-6-3-27-7A538 538 0 0 0 9 1zm46 5a604 604 0 0 1 53 9l-31-4C50 9 27 6 26 5l29 1zM24 8a578 578 0 0 1 57 6 859 859 0 0 1 47 7l-1 12a4674 4674 0 0 0-14 119l-7 42-8-1a738 738 0 0 0-93-18A1106 1106 0 0 1 10 6l14 2zm94 8h-2v-1l2 1zm24 6v3l-2 21-3 22-3 23a937 937 0 0 1-10 71l-3 23-5 5c-5 6-7 6-7 2a2255 2255 0 0 0 17-130l5-40c0-1 10-2 11 0z"/><path d="M12 25c-1 6-1 14 1 16l21 3a3286 3286 0 0 1 72 11l6 1 1-4 3-18c0-4 0-4-5-5l-15-2-23-4c-18-3-34-4-49-4H13l-1 6zm6 5c0 6 0 7-2 7l-2-8c0-6 0-7 2-7 1 0 2 2 2 8zm26-7a457 457 0 0 1 61 10l8 1c1 1 1 3-1 9 0 5-1 9-2 9 0 1-83-11-88-13-2-1-2-2-2-9v-8h6l18 1zM14 60l-1 6c0 4 1 5 7 5l6 1c2 1 2 1 2-1l1-5c0-4 0-4-3-5-3-2-10-3-12-1zm11 3 1 3c-1 2-2 2-6 2-5-1-5-1-4-4 0-2 6-3 9-1zm7 1c-1 3-1 6 1 7l7 2c6 1 7 0 7-5 0-4 0-4-10-6-4 0-5 0-5 2zm10 2 2 3h-4c-4 0-6-2-4-3h6zm11 1c-2 5 0 8 7 9 6 0 8-1 8-7v-3l-7-1c-6 0-8 0-8 2zm13 4c0 2 0 2-5 2l-6-2c-2-2 0-3 5-3 5 1 5 1 6 3zm8-3v8c3 1 13 2 14 1l2-4c0-4 0-4-2-5H74zm13 5c0 2 0 2-5 2-7-1-7-1-7-4l6-1c5 1 6 1 6 3zm7-2-1 4c0 3 1 3 6 5l5 1 2-2c3-3 2-7-1-9-4-2-11-1-11 1zm11 4c0 3 0 3-4 2-5 0-6-1-6-4l5-1c4 0 5 1 5 3zm-90 9c0 5 1 5 7 6 5 0 6 0 7-2s0-6-3-7l-6-1h-5v4zm11 0 1 2c0 2 0 2-4 1-6 0-6-1-6-3s1-2 4-1l5 1zm6-1v4c-1 3 1 4 7 5l7 1v-5c1-4 0-5-2-6l-7-2h-5v3zm11 2 1 3c0 2 0 2-4 2-6-1-6-2-6-5 0-2 0-2 4-2l5 2zm10 0v9l6 1c5 1 7-1 7-6v-4H53zm10 4c2 1 0 4-2 4-5 0-7-1-7-4 0-2 0-2 4-2l5 2zm10-4-1 6 1 4 5 1c7 0 8-1 8-6s0-5-7-6l-6 1zm7 3c2 0 3 1 3 3s-3 3-6 2c-3 0-3 0-2-4 0-2 0-2 5-1zm12 2v7l6 2c5 0 5 0 6-3 2-5 1-7-3-8-6-2-8-1-9 2zm8 1c1 0 2 1 2 3s0 2-4 2-5-1-4-4c0-2 3-3 6-1zm-85 6c-2 4 0 7 4 8 7 2 9 1 9-2 1-4 0-6-5-7-6-3-7-2-8 1zm8 1c4 1 4 5 1 5-5 0-8-2-8-4s2-3 7-1zm10 2-1 5c0 4 0 4 3 4l7 1c3-1 3-1 4-5 0-5 0-5-3-6-5-2-9-1-10 1zm8 1 3 3c-1 2-1 2-5 3-4 0-5 0-5-2s2-5 3-5l4 1zm31 2-1 5 1 4 6 1h7v-8c-2-2-10-3-13-2zm11 6c0 2 0 2-5 2-4-1-5-1-5-3s0-2 5-2 5 0 5 3zm-31-3v5c0 3 0 3 6 3l6-1 1-4c0-5 0-5-3-5l-7-1c-2 0-3 1-3 3zm9 0c2 0 2 1 2 2 0 3-3 5-7 4l-2-3c0-3 1-4 3-3h4zm34-1c-3 1-4 3-4 8 0 2 1 3 4 3 5 1 8-1 9-5 0-5-3-8-9-6zm6 6c0 3 0 3-3 3s-4 0-4-2c0-4 1-5 4-5 2 0 3 1 3 4zm-85 0c-2 0-2 1-2 5 1 4 1 4 5 6l6 1v-10c-2-2-7-3-9-2zm5 3 3 3c0 3-2 3-5 2-2-1-3-2-3-4s0-2 5-1zm11 2v5c0 2 1 2 6 3h6v-4c0-4 0-4-4-4h-8zm8 2c2 1 3 4 1 4-4 0-7-1-7-3s0-2 2-2l4 1zm10 4-1 4c0 4 3 5 9 5 4-1 4-1 5-4 0-4 0-4-3-5-5-2-10-2-10-1zm9 3c2 0 3 3 1 4h-5l-4-3 1-3 7 1zm13-2-2 4c0 3 3 5 9 5 3 0 4-1 4-6 0-2 0-3-4-4-6-1-6-1-7 1zm7 2c3 2 2 5-1 5l-4-1-1-2c0-2 1-3 2-3l4 1zm9 3c0 5-1 5 8 6 2 1 2 1 4-3 2-6 2-6-9-8h-3v5zm7-1c3 1 4 2 2 4h-4c-2 0-3-1-3-3s1-3 5-1zm-82 2c-2 2-4 27-3 31 1 5 3 9 6 10 7 3 20 4 23 3s5-7 5-13c0-4-1-4-9-6l-6-1v-24H13zm13 3 1 12v11l4 1c11 2 11 2 10 6 0 7-2 9-4 9-5 0-22-3-23-5-2-2-3-10-2-22l2-12c0-1 10-2 12 0z"/><path d="m34 138 1 6 4 1 4-1 1-5c0-3-3-7-7-7h-3v6zm7 1c0 3-1 4-3 4s-2 0-2-4 1-5 3-4 2 2 2 4zm9 3c0 3 0 4 3 5l5 1c2 0 3 0 3-3 0-5 0-6-6-7h-5v4zm6-1 3 3c0 2-1 2-4 1l-3-3c0-2 0-2 4-1zm12 2-1 5c0 3 1 3 4 4 5 1 7 1 7-2 2-6 1-7-6-8-2-1-3-1-4 1zm6 2c1 0 2 1 2 3s0 2-3 2-5-2-4-4 3-2 5-1zm10-1v9l6 2c4 1 4 1 5-2l1-6v-3l-5-1-7 1zm9 3v4c0 2-1 2-2 2l-4-1c-2 0-3-4-1-5 1-2 7-1 7 0zm-45 16-1 6c0 2 1 3 3 4 6 3 8 1 10-7 0-3 0-3-3-5-5-2-7-1-9 2zm7 1c2 0 3 3 1 5 0 2-5 3-6 1v-4c0-3 2-4 5-2zm7 2-1 5c0 3 1 3 7 5 4 0 4 0 5-2 2-5 1-10-1-10l-5-1c-3 0-4 0-5 3zm8 0 1 4c0 3-1 4-6 2-2 0-2-1-1-4l3-3 3 1zm10 0-1 6c0 5 0 5 3 6l7 1h4l1-6 1-8-8-1-7 1zm12 6-1 5-5-1c-4-1-4-1-5-3 0-5 1-6 6-6h5v5z"/></svg>